TITLE ""
FILE "P1Q_t_0601-0609.mp3" MP3
  TRACK 01 AUDIO
    TITLE "P1Q_t_0601-0609_01"
    INDEX 01 00:00:00
  TRACK 02 AUDIO
    TITLE "P1Q_t_0601-0609_02"
    INDEX 01 00:00:08
  TRACK 03 AUDIO
    TITLE "P1Q_t_0601-0609_03"
    INDEX 01 00:01:57
  TRACK 04 AUDIO
    TITLE "P1Q_t_0601-0609_04"
    INDEX 01 00:02:31
  TRACK 05 AUDIO
    TITLE "P1Q_t_0601-0609_05"
    INDEX 01 00:03:38
  TRACK 06 AUDIO
    TITLE "P1Q_t_0601-0609_06"
    INDEX 01 00:04:08
  TRACK 07 AUDIO
    TITLE "P1Q_t_0601-0609_07"
    INDEX 01 00:05:23
  TRACK 08 AUDIO
    TITLE "P1Q_t_0601-0609_08"
    INDEX 01 00:05:45
  TRACK 09 AUDIO
    TITLE "P1Q_t_0601-0609_09"
    INDEX 01 00:07:61
  TRACK 10 AUDIO
    TITLE "P1Q_t_0601-0609_10"
    INDEX 01 00:08:06
  TRACK 11 AUDIO
    TITLE "P1Q_t_0601-0609_11"
    INDEX 01 00:13:60
  TRACK 12 AUDIO
    TITLE "P1Q_t_0601-0609_12"
    INDEX 01 00:14:32
  TRACK 13 AUDIO
    TITLE "P1Q_t_0601-0609_13"
    INDEX 01 00:15:45
  TRACK 14 AUDIO
    TITLE "P1Q_t_0601-0609_14"
    INDEX 01 00:15:67
  TRACK 15 AUDIO
    TITLE "P1Q_t_0601-0609_15"
    INDEX 01 00:18:43
  TRACK 16 AUDIO
    TITLE "P1Q_t_0601-0609_16"
    INDEX 01 00:18:63
  TRACK 17 AUDIO
    TITLE "P1Q_t_0601-0609_17"
    INDEX 01 00:23:03
  TRACK 18 AUDIO
    TITLE "P1Q_t_0601-0609_18"
    INDEX 01 00:23:47
  TRACK 19 AUDIO
    TITLE "P1Q_t_0601-0609_19"
    INDEX 01 00:24:64
  TRACK 20 AUDIO
    TITLE "P1Q_t_0601-0609_20"
    INDEX 01 00:25:10
  TRACK 21 AUDIO
    TITLE "P1Q_t_0601-0609_21"
    INDEX 01 00:28:48
  TRACK 22 AUDIO
    TITLE "P1Q_t_0601-0609_22"
    INDEX 01 00:28:65
  TRACK 23 AUDIO
    TITLE "P1Q_t_0601-0609_23"
    INDEX 01 00:32:44
  TRACK 24 AUDIO
    TITLE "P1Q_t_0601-0609_24"
    INDEX 01 00:33:14
  TRACK 25 AUDIO
    TITLE "P1Q_t_0601-0609_25"
    INDEX 01 00:34:23
  TRACK 26 AUDIO
    TITLE "P1Q_t_0601-0609_26"
    INDEX 01 00:34:44
  TRACK 27 AUDIO
    TITLE "P1Q_t_0601-0609_27"
    INDEX 01 00:37:64
  TRACK 28 AUDIO
    TITLE "P1Q_t_0601-0609_28"
    INDEX 01 00:38:09
  TRACK 29 AUDIO
    TITLE "P1Q_t_0601-0609_29"
    INDEX 01 00:42:13
  TRACK 30 AUDIO
    TITLE "P1Q_t_0601-0609_30"
    INDEX 01 00:42:60
  TRACK 31 AUDIO
    TITLE "P1Q_t_0601-0609_31"
    INDEX 01 00:44:08
  TRACK 32 AUDIO
    TITLE "P1Q_t_0601-0609_32"
    INDEX 01 00:44:29
  TRACK 33 AUDIO
    TITLE "P1Q_t_0601-0609_33"
    INDEX 01 00:45:56
  TRACK 34 AUDIO
    TITLE "P1Q_t_0601-0609_34"
    INDEX 01 00:46:01
  TRACK 35 AUDIO
    TITLE "P1Q_t_0601-0609_35"
    INDEX 01 00:51:64
  TRACK 36 AUDIO
    TITLE "P1Q_t_0601-0609_36"
    INDEX 01 00:52:40
  TRACK 37 AUDIO
    TITLE "P1Q_t_0601-0609_37"
    INDEX 01 00:53:67
  TRACK 38 AUDIO
    TITLE "P1Q_t_0601-0609_38"
    INDEX 01 00:54:16
  TRACK 39 AUDIO
    TITLE "P1Q_t_0601-0609_39"
    INDEX 01 01:00:16
  TRACK 40 AUDIO
    TITLE "P1Q_t_0601-0609_40"
    INDEX 01 01:00:36
  TRACK 41 AUDIO
    TITLE "P1Q_t_0601-0609_41"
    INDEX 01 01:06:39
  TRACK 42 AUDIO
    TITLE "P1Q_t_0601-0609_42"
    INDEX 01 01:07:09
  TRACK 43 AUDIO
    TITLE "P1Q_t_0601-0609_43"
    INDEX 01 01:08:30
  TRACK 44 AUDIO
    TITLE "P1Q_t_0601-0609_44"
    INDEX 01 01:08:49
  TRACK 45 AUDIO
    TITLE "P1Q_t_0601-0609_45"
    INDEX 01 01:12:47
  TRACK 46 AUDIO
    TITLE "P1Q_t_0601-0609_46"
    INDEX 01 01:12:67
  TRACK 47 AUDIO
    TITLE "P1Q_t_0601-0609_47"
    INDEX 01 01:18:46
  TRACK 48 AUDIO
    TITLE "P1Q_t_0601-0609_48"
    INDEX 01 01:19:18
  TRACK 49 AUDIO
    TITLE "P1Q_t_0601-0609_49"
    INDEX 01 01:20:41
  TRACK 50 AUDIO
    TITLE "P1Q_t_0601-0609_50"
    INDEX 01 01:20:62
  TRACK 51 AUDIO
    TITLE "P1Q_t_0601-0609_51"
    INDEX 01 01:26:08
  TRACK 52 AUDIO
    TITLE "P1Q_t_0601-0609_52"
    INDEX 01 01:26:28
  TRACK 53 AUDIO
    TITLE "P1Q_t_0601-0609_53"
    INDEX 01 01:30:14
  TRACK 54 AUDIO
    TITLE "P1Q_t_0601-0609_54"
    INDEX 01 01:30:61
  TRACK 55 AUDIO
    TITLE "P1Q_t_0601-0609_55"
    INDEX 01 01:31:70
  TRACK 56 AUDIO
    TITLE "P1Q_t_0601-0609_56"
    INDEX 01 01:32:14
  TRACK 57 AUDIO
    TITLE "P1Q_t_0601-0609_57"
    INDEX 01 01:36:18
  TRACK 58 AUDIO
    TITLE "P1Q_t_0601-0609_58"
    INDEX 01 01:36:38
  TRACK 59 AUDIO
    TITLE "P1Q_t_0601-0609_59"
    INDEX 01 01:42:03
